<?xml version="1.0" standalone="no"?>
<!DOCTYPE svg PUBLIC "-//W3C//DTD SVG 20010904//EN"
 "http://www.w3.org/TR/2001/REC-SVG-20010904/DTD/svg10.dtd">
<svg version="1.0" xmlns="http://www.w3.org/2000/svg"
 width="500.000000pt" height="500.000000pt" viewBox="0 0 500.000000 500.000000"
 preserveAspectRatio="xMidYMid meet">

<g transform="translate(0.000000,500.000000) scale(0.100000,-0.100000)"
fill="#000000" stroke="none">
<path d="M2443 3780 c-312 -57 -543 -331 -543 -646 0 -184 63 -337 190 -465
199 -200 504 -252 750 -129 232 117 369 336 370 591 0 350 -274 638 -623 654
-51 2 -115 0 -144 -5z m-1 -613 c-2 -243 -7 -263 -66 -291 -40 -19 -137 -21
-154 -4 -7 7 -12 27 -12 45 0 39 21 53 78 53 33 0 41 4 46 23 3 12 6 103 6
203 0 99 3 184 7 188 4 4 28 6 53 4 l45 -3 -3 -218z m366 209 c40 -20 59 -46
72 -94 14 -52 1 -98 -35 -132 l-25 -24 25 -26 c13 -14 29 -40 35 -57 24 -69
-29 -156 -106 -174 -58 -13 -218 -11 -232 3 -17 17 -17 489 0 506 18 18 231
16 266 -2z"/>
<path d="M2640 3230 l0 -60 46 0 c64 0 84 13 84 55 0 47 -22 65 -81 65 l-49 0
0 -60z"/>
<path d="M2640 3020 l0 -50 53 0 c61 0 77 11 77 56 0 37 -12 44 -81 44 l-49 0
0 -50z"/>
<path d="M931 2293 c-13 -26 4 -53 34 -53 l25 0 0 -113 c0 -119 -6 -137 -45
-137 -25 0 -45 18 -45 41 0 25 -26 42 -55 35 -37 -10 -35 -67 4 -107 27 -26
36 -29 96 -29 60 0 69 3 96 29 l30 30 -3 158 -3 158 -62 3 c-51 2 -63 0 -72
-15z"/>
<path d="M1202 2299 c-56 -17 -72 -57 -72 -182 0 -160 19 -187 132 -187 106 0
128 32 128 191 0 99 -12 141 -46 164 -31 20 -100 27 -142 14z m92 -75 c12 -12
16 -37 16 -109 0 -72 -4 -97 -16 -109 -18 -19 -55 -21 -72 -4 -16 16 -16 210
0 226 17 17 54 15 72 -4z"/>
<path d="M1450 2295 c-9 -11 -11 -55 -8 -161 l3 -146 33 -29 c28 -25 40 -29
92 -29 125 0 140 24 140 229 0 131 -1 140 -20 146 -11 3 -29 3 -40 0 -19 -6
-20 -15 -20 -145 0 -150 -6 -170 -55 -170 -45 0 -55 32 -55 176 0 111 -3 133
-16 138 -25 10 -41 7 -54 -9z"/>
<path d="M1778 2304 c-5 -4 -8 -90 -8 -191 l0 -184 38 3 37 3 3 73 c4 99 24
99 75 -3 34 -69 39 -75 67 -75 45 0 48 24 12 93 l-31 60 29 34 c46 52 39 140
-13 173 -24 15 -197 27 -209 14z m160 -76 c7 -7 12 -24 12 -38 0 -36 -17 -50
-62 -50 l-38 0 0 50 0 50 38 0 c21 0 43 -5 50 -12z"/>
<path d="M2092 2302 c-9 -7 -12 -51 -10 -188 l3 -179 35 0 35 0 5 95 5 95 54
-98 53 -98 37 3 36 3 3 176 c3 192 -1 208 -53 195 -23 -6 -24 -9 -27 -104 l-3
-97 -43 83 c-58 113 -89 140 -130 114z"/>
<path d="M2492 2297 c-9 -11 -35 -90 -92 -283 -20 -69 -15 -84 31 -84 23 0 28
6 36 38 l9 37 59 0 59 0 9 -37 c8 -33 13 -38 37 -38 53 0 53 14 -1 191 -28 90
-56 170 -61 177 -13 16 -73 16 -86 -1z m73 -190 l7 -37 -37 0 c-36 0 -36 1
-30 33 4 17 11 48 17 67 l11 35 13 -30 c7 -17 15 -47 19 -68z"/>
<path d="M2731 2296 c-8 -9 -11 -68 -9 -187 l3 -174 110 0 110 0 0 25 c0 24
-3 25 -70 30 l-70 5 -3 150 c-2 104 -6 152 -15 157 -19 12 -43 9 -56 -6z"/>
<path d="M2997 2303 c-4 -3 -7 -89 -7 -190 l0 -183 100 0 c94 0 103 2 125 25
21 20 25 34 25 80 0 47 -4 60 -23 77 -23 21 -23 22 -5 40 20 20 25 87 8 118
-5 10 -24 23 -41 29 -35 12 -171 15 -182 4z m151 -100 c3 -27 -1 -33 -22 -39
-38 -9 -61 -1 -64 24 -6 42 5 53 45 50 35 -3 38 -6 41 -35z m10 -146 c4 -50
-12 -69 -57 -65 -36 3 -36 3 -39 56 l-3 53 48 -3 c48 -3 48 -3 51 -41z"/>
<path d="M3363 2304 c-12 -3 -34 -19 -48 -35 -24 -29 -25 -36 -25 -156 0 -124
0 -125 29 -154 27 -26 36 -29 96 -29 60 0 69 3 96 29 29 29 29 30 29 155 0
123 -1 126 -27 156 -23 25 -38 31 -78 34 -27 3 -60 2 -72 0z m94 -94 c16 -32
16 -158 0 -190 -14 -28 -51 -38 -73 -20 -19 16 -20 210 -2 228 20 20 61 10 75
-18z"/>
<path d="M3664 2296 c-57 -25 -64 -47 -64 -184 0 -123 0 -124 29 -153 27 -26
36 -29 96 -29 60 0 69 3 96 29 29 29 29 30 29 155 0 123 -1 126 -27 156 -34
37 -108 49 -159 26z m103 -86 c16 -32 16 -158 0 -190 -14 -28 -51 -38 -73 -20
-19 16 -20 210 -2 228 20 20 61 10 75 -18z"/>
<path d="M3922 2302 c-9 -7 -12 -51 -10 -188 l3 -179 35 0 35 0 3 57 c5 91 22
93 78 8 44 -65 50 -71 78 -68 48 5 44 31 -19 125 l-56 85 45 58 c25 32 46 65
46 74 0 15 -28 36 -49 36 -5 0 -34 -35 -63 -77 l-53 -77 -3 69 c-2 40 -8 73
-15 77 -16 10 -39 10 -55 0z"/>
</g>
</svg>
